<?xml version="1.0" encoding="UTF-8" standalone="no"?>
<!DOCTYPE svg PUBLIC "-//W3C//DTD SVG 1.1//EN" "http://www.w3.org/Graphics/SVG/1.1/DTD/svg11.dtd">
<svg width="100%" height="100%" viewBox="0 0 1080 1080" version="1.1" xmlns="http://www.w3.org/2000/svg" xmlns:xlink="http://www.w3.org/1999/xlink" xml:space="preserve" xmlns:serif="http://www.serif.com/" style="fill-rule:evenodd;clip-rule:evenodd;stroke-linecap:round;stroke-linejoin:round;stroke-miterlimit:1.5;">
    <g>
        <g transform="matrix(1.852417,0,0,1.73747,-259.318066,-148.906921)">
            <path d="M431.5,187L601.674,291.75L601.674,501.25L431.5,606L261.326,501.25L261.326,291.75L431.5,187Z" style="fill:rgb(0,3,53);stroke:rgb(255,161,0);stroke-width:13.92px;"/>
        </g>
        <g transform="matrix(0.618321,0,0,0.579952,273.194656,67.548926)">
            <path d="M431.5,187L601.674,291.75L601.674,501.25L431.5,606L261.326,501.25L261.326,291.75L431.5,187Z" style="fill:rgb(235,235,235);fill-opacity:0;stroke:rgb(255,161,0);stroke-width:13.9px;"/>
        </g>
        <g transform="matrix(0.618321,0,0,0.579952,167.97257,249.548926)">
            <path d="M431.5,187L601.674,291.75L601.674,501.25L431.5,606L261.326,501.25L261.326,291.75L431.5,187Z" style="fill:rgb(235,235,235);fill-opacity:0;stroke:rgb(255,161,0);stroke-width:13.9px;"/>
        </g>
        <g transform="matrix(0.618321,0,0,0.579952,378.416743,249.548926)">
            <path d="M431.5,187L601.674,291.75L601.674,501.25L431.5,606L261.326,501.25L261.326,291.75L431.5,187Z" style="fill:rgb(235,235,235);fill-opacity:0;stroke:rgb(255,161,0);stroke-width:13.9px;"/>
        </g>
        <g transform="matrix(0.618321,0,0,0.579952,483.205817,431.548926)">
            <path d="M431.5,187L601.674,291.75L601.674,501.25L431.5,606L261.326,501.25L261.326,291.75L431.5,187Z" style="fill:rgb(235,235,235);fill-opacity:0;stroke:rgb(255,161,0);stroke-width:13.9px;"/>
        </g>
        <g transform="matrix(0.618321,0,0,0.579952,63.183496,431.548926)">
            <path d="M431.5,187L601.674,291.75L601.674,501.25L431.5,606L261.326,501.25L261.326,291.75L431.5,187Z" style="fill:rgb(235,235,235);fill-opacity:0;stroke:rgb(255,161,0);stroke-width:13.9px;"/>
        </g>
        <g transform="matrix(0.618321,0,0,0.579952,273.627669,431.548926)">
            <path d="M431.5,187L601.674,291.75L601.674,501.25L431.5,606L261.326,501.25L261.326,291.75L431.5,187Z" style="fill:rgb(235,235,235);fill-opacity:0;stroke:rgb(255,161,0);stroke-width:13.9px;"/>
        </g>
        <g transform="matrix(1.852417,0,0,1.73747,-259.318066,-512.906921)">
            <path d="M601.674,501.25L431.5,606L261.326,501.25" style="fill:rgb(235,235,235);fill-opacity:0;"/>
            <path d="M431.5,600.462C487.535,566.114 543.394,531.441 599.429,497.093C599.668,496.947 601.036,496.108 602.837,496.623C603.393,496.782 603.932,497.056 604.389,497.428C605.893,498.653 606.1,500.358 606.136,500.654C606.371,502.592 605.423,503.915 605.259,504.145C604.899,504.647 604.44,505.084 603.928,505.401C547.26,540.427 490.487,575.257 433.749,610.154C432.33,611.026 430.961,610.769 430.719,610.723C428.905,610.382 429.018,610.01 354.698,564.263C259.386,505.594 259.047,505.967 257.741,504.145C257.392,503.657 257.022,503.102 256.986,502.49C256.914,501.269 257.502,500.072 257.43,498.852L257.238,498.727C258.283,498.206 258.98,497.06 260.025,496.538C260.565,496.269 261.22,496.354 261.809,496.446C262.424,496.543 263.032,496.763 263.571,497.093C319.606,531.441 375.465,566.114 431.5,600.462Z" style="fill:rgb(255,161,0);"/>
        </g>
        <g transform="matrix(1.852417,0,0,1.73747,-574.551313,27.093079)">
            <path d="M431.5,187L601.674,291.75L601.674,501.25" style="fill:rgb(235,235,235);fill-opacity:0;stroke:rgb(255,161,0);stroke-width:9.28px;"/>
        </g>
        <g transform="matrix(1.852417,0,0,1.73747,55.915181,27.093079)">
            <path d="M261.326,501.25L261.326,291.75L431.5,187" style="fill:rgb(235,235,235);fill-opacity:0;stroke:rgb(255,161,0);stroke-width:9.28px;"/>
        </g>
        <g transform="matrix(0.618321,0,0,0.579952,273.194656,310.048926)">
            <path d="M431.5,187L601.674,291.75L601.674,501.25L431.5,606L261.326,501.25L261.326,291.75L431.5,187Z" style="fill:rgb(0,3,53);stroke:rgb(255,161,0);stroke-width:13.9px;"/>
        </g>
        <path d="M540,540L645.222,602L539.959,661.5L434.778,602L540,540Z" style="fill:none;stroke:rgb(255,161,0);stroke-width:8.33px;"/>
        <path d="M540,418.5L540,540L644.789,600.75L645.222,478L540,418.5Z" style="fill:none;stroke:rgb(255,161,0);stroke-width:8.33px;"/>
    </g>
</svg>
